<svg width="149px" height="404px"
 viewBox="0.00 0.00 149.13 404.00" xmlns="http://www.w3.org/2000/svg" xmlns:xlink="http://www.w3.org/1999/xlink">
<g id="graph0" class="graph" transform="scale(1.0 1.0) rotate(0) translate(4 400)">
<title>graph</title>
<polygon fill="white" stroke="transparent" points="-4,4 -4,-400 145.13,-400 145.13,4 -4,4"/>
<!-- 1 -->
<g id="node1" class="node">
<title>1</title>
<ellipse fill="none" stroke="black" cx="70.57" cy="-378" rx="60.82" ry="18"/>
<text text-anchor="middle" x="70.57" y="-373.8" font-family="Times,serif" font-size="14.00">Method: two</text>
</g>
<!-- 3 -->
<g id="node2" class="node">
<title>3</title>
<polygon fill="none" stroke="black" points="101.17,-324 39.96,-324 39.96,-288 101.17,-288 101.17,-324"/>
<text text-anchor="middle" x="70.57" y="-301.8" font-family="Times,serif" font-size="14.00">int c = a</text>
</g>
<!-- 1&#45;&gt;3 -->
<g id="edge1" class="edge">
<title>1&#45;&gt;3</title>
<path fill="none" stroke="black" d="M70.57,-359.7C70.57,-351.98 70.57,-342.71 70.57,-334.11"/>
<polygon fill="black" stroke="black" points="74.07,-334.1 70.57,-324.1 67.07,-334.1 74.07,-334.1"/>
</g>
<!-- 4 -->
<g id="node3" class="node">
<title>4</title>
<polygon fill="none" stroke="black" points="102.24,-252 38.89,-252 38.89,-216 102.24,-216 102.24,-252"/>
<text text-anchor="middle" x="70.57" y="-229.8" font-family="Times,serif" font-size="14.00">int d = b</text>
</g>
<!-- 3&#45;&gt;4 -->
<g id="edge2" class="edge">
<title>3&#45;&gt;4</title>
<path fill="none" stroke="black" d="M70.57,-287.7C70.57,-279.98 70.57,-270.71 70.57,-262.11"/>
<polygon fill="black" stroke="black" points="74.07,-262.1 70.57,-252.1 67.07,-262.1 74.07,-262.1"/>
</g>
<!-- 5 -->
<g id="node4" class="node">
<title>5</title>
<polygon fill="none" stroke="blue" points="70.57,-180 19.61,-162 70.57,-144 121.53,-162 70.57,-180"/>
<text text-anchor="middle" x="70.57" y="-157.8" font-family="Times,serif" font-size="14.00">c == d</text>
</g>
<!-- 4&#45;&gt;5 -->
<g id="edge3" class="edge">
<title>4&#45;&gt;5</title>
<path fill="none" stroke="black" d="M70.57,-215.7C70.57,-207.98 70.57,-198.71 70.57,-190.11"/>
<polygon fill="black" stroke="black" points="74.07,-190.1 70.57,-180.1 67.07,-190.1 74.07,-190.1"/>
</g>
<!-- 6 -->
<g id="node5" class="node">
<title>6</title>
<polygon fill="none" stroke="black" points="61.57,-108 7.57,-108 7.57,-72 61.57,-72 61.57,-108"/>
<text text-anchor="middle" x="34.57" y="-85.8" font-family="Times,serif" font-size="14.00">d = c</text>
</g>
<!-- 5&#45;&gt;6 -->
<g id="edge4" class="edge">
<title>5&#45;&gt;6</title>
<path fill="none" stroke="black" d="M63.11,-146.5C58.77,-138.06 53.17,-127.17 48.08,-117.27"/>
<polygon fill="black" stroke="black" points="51.1,-115.5 43.41,-108.2 44.87,-118.7 51.1,-115.5"/>
</g>
<!-- 7 -->
<g id="node7" class="node">
<title>7</title>
<polygon fill="none" stroke="black" points="133.57,-108 79.57,-108 79.57,-72 133.57,-72 133.57,-108"/>
<text text-anchor="middle" x="106.57" y="-85.8" font-family="Times,serif" font-size="14.00">c = d</text>
</g>
<!-- 5&#45;&gt;7 -->
<g id="edge5" class="edge">
<title>5&#45;&gt;7</title>
<path fill="none" stroke="black" d="M78.03,-146.5C82.36,-138.06 87.96,-127.17 93.05,-117.27"/>
<polygon fill="black" stroke="black" points="96.26,-118.7 97.72,-108.2 90.03,-115.5 96.26,-118.7"/>
</g>
<!-- 2 -->
<g id="node6" class="node">
<title>2</title>
<ellipse fill="none" stroke="black" cx="70.57" cy="-18" rx="70.63" ry="18"/>
<text text-anchor="middle" x="70.57" y="-13.8" font-family="Times,serif" font-size="14.00">end of program</text>
</g>
<!-- 6&#45;&gt;2 -->
<g id="edge6" class="edge">
<title>6&#45;&gt;2</title>
<path fill="none" stroke="black" d="M43.46,-71.7C47.56,-63.73 52.51,-54.1 57.06,-45.26"/>
<polygon fill="black" stroke="black" points="60.31,-46.6 61.77,-36.1 54.08,-43.4 60.31,-46.6"/>
</g>
<!-- 7&#45;&gt;2 -->
<g id="edge7" class="edge">
<title>7&#45;&gt;2</title>
<path fill="none" stroke="black" d="M97.67,-71.7C93.57,-63.73 88.62,-54.1 84.07,-45.26"/>
<polygon fill="black" stroke="black" points="87.05,-43.4 79.36,-36.1 80.82,-46.6 87.05,-43.4"/>
</g>
</g>
</svg>
