<svg width="374px" height="836px"
 viewBox="0.00 0.00 373.96 836.00" xmlns="http://www.w3.org/2000/svg" xmlns:xlink="http://www.w3.org/1999/xlink">
<g id="graph0" class="graph" transform="scale(1.0 1.0) rotate(0) translate(4 832)">
<title>graph</title>
<polygon fill="white" stroke="transparent" points="-4,4 -4,-832 369.96,-832 369.96,4 -4,4"/>
<!-- 8 -->
<g id="node1" class="node">
<title>8</title>
<ellipse fill="none" stroke="black" cx="256.49" cy="-810" rx="109.44" ry="18"/>
<text text-anchor="middle" x="256.49" y="-805.8" font-family="Times,serif" font-size="14.00">Method: continueMethod</text>
</g>
<!-- 10 -->
<g id="node2" class="node">
<title>10</title>
<polygon fill="none" stroke="black" points="287.88,-756 225.1,-756 225.1,-720 287.88,-720 287.88,-756"/>
<text text-anchor="middle" x="256.49" y="-733.8" font-family="Times,serif" font-size="14.00">int c = 0</text>
</g>
<!-- 8&#45;&gt;10 -->
<g id="edge1" class="edge">
<title>8&#45;&gt;10</title>
<path fill="none" stroke="black" d="M256.49,-791.7C256.49,-783.98 256.49,-774.71 256.49,-766.11"/>
<polygon fill="black" stroke="black" points="259.99,-766.1 256.49,-756.1 252.99,-766.1 259.99,-766.1"/>
</g>
<!-- 11 -->
<g id="node3" class="node">
<title>11</title>
<polygon fill="none" stroke="black" points="288.17,-684 224.81,-684 224.81,-648 288.17,-648 288.17,-684"/>
<text text-anchor="middle" x="256.49" y="-661.8" font-family="Times,serif" font-size="14.00">int b = 1</text>
</g>
<!-- 10&#45;&gt;11 -->
<g id="edge2" class="edge">
<title>10&#45;&gt;11</title>
<path fill="none" stroke="black" d="M256.49,-719.7C256.49,-711.98 256.49,-702.71 256.49,-694.11"/>
<polygon fill="black" stroke="black" points="259.99,-694.1 256.49,-684.1 252.99,-694.1 259.99,-694.1"/>
</g>
<!-- 12 -->
<g id="node4" class="node">
<title>12</title>
<polygon fill="none" stroke="black" points="296.49,-612 216.49,-612 216.49,-576 296.49,-576 296.49,-612"/>
<text text-anchor="middle" x="256.49" y="-589.8" font-family="Times,serif" font-size="14.00">c = b + 100</text>
</g>
<!-- 11&#45;&gt;12 -->
<g id="edge3" class="edge">
<title>11&#45;&gt;12</title>
<path fill="none" stroke="black" d="M256.49,-647.7C256.49,-639.98 256.49,-630.71 256.49,-622.11"/>
<polygon fill="black" stroke="black" points="259.99,-622.1 256.49,-612.1 252.99,-622.1 259.99,-622.1"/>
</g>
<!-- 13 -->
<g id="node5" class="node">
<title>13</title>
<polygon fill="none" stroke="orange" points="286.56,-540 226.42,-540 226.42,-504 286.56,-504 286.56,-540"/>
<text text-anchor="middle" x="256.49" y="-517.8" font-family="Times,serif" font-size="14.00">int i = 0</text>
</g>
<!-- 12&#45;&gt;13 -->
<g id="edge4" class="edge">
<title>12&#45;&gt;13</title>
<path fill="none" stroke="black" d="M256.49,-575.7C256.49,-567.98 256.49,-558.71 256.49,-550.11"/>
<polygon fill="black" stroke="black" points="259.99,-550.1 256.49,-540.1 252.99,-550.1 259.99,-550.1"/>
</g>
<!-- 14 -->
<g id="node6" class="node">
<title>14</title>
<polygon fill="none" stroke="orange" points="256.49,-468 202.15,-450 256.49,-432 310.83,-450 256.49,-468"/>
<text text-anchor="middle" x="256.49" y="-445.8" font-family="Times,serif" font-size="14.00">i &lt; 200</text>
</g>
<!-- 13&#45;&gt;14 -->
<g id="edge5" class="edge">
<title>13&#45;&gt;14</title>
<path fill="none" stroke="black" d="M256.49,-503.7C256.49,-495.98 256.49,-486.71 256.49,-478.11"/>
<polygon fill="black" stroke="black" points="259.99,-478.1 256.49,-468.1 252.99,-478.1 259.99,-478.1"/>
</g>
<!-- 16 -->
<g id="node7" class="node">
<title>16</title>
<polygon fill="none" stroke="blue" points="120.49,-396 70.78,-378 120.49,-360 170.21,-378 120.49,-396"/>
<text text-anchor="middle" x="120.49" y="-373.8" font-family="Times,serif" font-size="14.00">c &gt; 20</text>
</g>
<!-- 14&#45;&gt;16 -->
<g id="edge6" class="edge">
<title>14&#45;&gt;16</title>
<path fill="none" stroke="black" d="M236.13,-438.52C213.03,-426.63 175.2,-407.16 149.13,-393.74"/>
<polygon fill="black" stroke="black" points="150.6,-390.56 140.11,-389.1 147.4,-396.78 150.6,-390.56"/>
</g>
<!-- 24 -->
<g id="node15" class="node">
<title>24</title>
<polygon fill="none" stroke="black" points="324.26,-396 188.72,-396 188.72,-360 324.26,-360 324.26,-396"/>
<text text-anchor="middle" x="256.49" y="-373.8" font-family="Times,serif" font-size="14.00">System.out.println(b)</text>
</g>
<!-- 14&#45;&gt;24 -->
<g id="edge7" class="edge">
<title>14&#45;&gt;24</title>
<path fill="none" stroke="black" d="M256.49,-431.7C256.49,-423.98 256.49,-414.71 256.49,-406.11"/>
<polygon fill="black" stroke="black" points="259.99,-406.1 256.49,-396.1 252.99,-406.1 259.99,-406.1"/>
</g>
<!-- 17 -->
<g id="node8" class="node">
<title>17</title>
<polygon fill="none" stroke="black" points="94.49,-324 40.49,-324 40.49,-288 94.49,-288 94.49,-324"/>
<text text-anchor="middle" x="67.49" y="-301.8" font-family="Times,serif" font-size="14.00">c += 2</text>
</g>
<!-- 16&#45;&gt;17 -->
<g id="edge8" class="edge">
<title>16&#45;&gt;17</title>
<path fill="none" stroke="black" d="M110.27,-363.5C103.58,-354.66 94.62,-342.83 86.64,-332.28"/>
<polygon fill="black" stroke="black" points="89.33,-330.04 80.5,-324.18 83.74,-334.27 89.33,-330.04"/>
</g>
<!-- 20 -->
<g id="node11" class="node">
<title>20</title>
<polygon fill="none" stroke="black" points="166.49,-324 112.49,-324 112.49,-288 166.49,-288 166.49,-324"/>
<text text-anchor="middle" x="139.49" y="-301.8" font-family="Times,serif" font-size="14.00">c &#45;= 1</text>
</g>
<!-- 16&#45;&gt;20 -->
<g id="edge9" class="edge">
<title>16&#45;&gt;20</title>
<path fill="none" stroke="black" d="M124.71,-361.46C126.87,-353.5 129.56,-343.58 132.06,-334.38"/>
<polygon fill="black" stroke="black" points="135.51,-335.03 134.75,-324.46 128.75,-333.19 135.51,-335.03"/>
</g>
<!-- 18 -->
<g id="node9" class="node">
<title>18</title>
<polygon fill="none" stroke="black" points="134.97,-180 0.01,-180 0.01,-144 134.97,-144 134.97,-180"/>
<text text-anchor="middle" x="67.49" y="-157.8" font-family="Times,serif" font-size="14.00">System.out.println(c)</text>
</g>
<!-- 17&#45;&gt;18 -->
<g id="edge10" class="edge">
<title>17&#45;&gt;18</title>
<path fill="none" stroke="black" d="M67.49,-287.87C67.49,-263.67 67.49,-219.21 67.49,-190.39"/>
<polygon fill="black" stroke="black" points="70.99,-190.19 67.49,-180.19 63.99,-190.19 70.99,-190.19"/>
</g>
<!-- 15 -->
<g id="node10" class="node">
<title>15</title>
<polygon fill="none" stroke="orange" points="212.49,-36 158.49,-36 158.49,0 212.49,0 212.49,-36"/>
<text text-anchor="middle" x="185.49" y="-13.8" font-family="Times,serif" font-size="14.00">i++</text>
</g>
<!-- 18&#45;&gt;15 -->
<g id="edge11" class="edge">
<title>18&#45;&gt;15</title>
<path fill="none" stroke="black" d="M69.9,-143.92C73.36,-124.65 81.32,-93.26 98.49,-72 111.81,-55.52 131.71,-42.85 149.13,-34.04"/>
<polygon fill="black" stroke="black" points="150.99,-37.03 158.49,-29.55 147.96,-30.72 150.99,-37.03"/>
</g>
<!-- 15&#45;&gt;14 -->
<g id="edge12" class="edge">
<title>15&#45;&gt;14</title>
<path fill="none" stroke="black" d="M212.64,-27.66C260.42,-44.79 354.49,-87.8 354.49,-161 354.49,-307 354.49,-307 354.49,-307 354.49,-347.64 356.43,-362.45 333.49,-396 322.16,-412.57 303.79,-425.51 287.84,-434.45"/>
<polygon fill="black" stroke="black" points="285.99,-431.47 278.8,-439.25 289.28,-437.65 285.99,-431.47"/>
</g>
<!-- 21 -->
<g id="node12" class="node">
<title>21</title>
<polygon fill="none" stroke="black" points="241.97,-252 107.01,-252 107.01,-216 241.97,-216 241.97,-252"/>
<text text-anchor="middle" x="174.49" y="-229.8" font-family="Times,serif" font-size="14.00">System.out.println(c)</text>
</g>
<!-- 20&#45;&gt;21 -->
<g id="edge13" class="edge">
<title>20&#45;&gt;21</title>
<path fill="none" stroke="black" d="M148.14,-287.7C152.13,-279.73 156.94,-270.1 161.36,-261.26"/>
<polygon fill="black" stroke="black" points="164.6,-262.61 165.94,-252.1 158.34,-259.48 164.6,-262.61"/>
</g>
<!-- 22 -->
<g id="node13" class="node">
<title>22</title>
<polygon fill="none" stroke="black" points="218.49,-180 152.49,-180 152.49,-144 218.49,-144 218.49,-180"/>
<text text-anchor="middle" x="185.49" y="-157.8" font-family="Times,serif" font-size="14.00">b = c + 5</text>
</g>
<!-- 21&#45;&gt;22 -->
<g id="edge14" class="edge">
<title>21&#45;&gt;22</title>
<path fill="none" stroke="black" d="M177.21,-215.7C178.42,-207.98 179.88,-198.71 181.23,-190.11"/>
<polygon fill="black" stroke="black" points="184.71,-190.53 182.8,-180.1 177.79,-189.44 184.71,-190.53"/>
</g>
<!-- 23 -->
<g id="node14" class="node">
<title>23</title>
<polygon fill="none" stroke="black" points="263.87,-108 107.11,-108 107.11,-72 263.87,-72 263.87,-108"/>
<text text-anchor="middle" x="185.49" y="-85.8" font-family="Times,serif" font-size="14.00">System.out.println(c + b)</text>
</g>
<!-- 22&#45;&gt;23 -->
<g id="edge15" class="edge">
<title>22&#45;&gt;23</title>
<path fill="none" stroke="black" d="M185.49,-143.7C185.49,-135.98 185.49,-126.71 185.49,-118.11"/>
<polygon fill="black" stroke="black" points="188.99,-118.1 185.49,-108.1 181.99,-118.1 188.99,-118.1"/>
</g>
<!-- 23&#45;&gt;15 -->
<g id="edge16" class="edge">
<title>23&#45;&gt;15</title>
<path fill="none" stroke="black" d="M185.49,-71.7C185.49,-63.98 185.49,-54.71 185.49,-46.11"/>
<polygon fill="black" stroke="black" points="188.99,-46.1 185.49,-36.1 181.99,-46.1 188.99,-46.1"/>
</g>
<!-- 9 -->
<g id="node16" class="node">
<title>9</title>
<ellipse fill="none" stroke="black" cx="255.49" cy="-306" rx="70.63" ry="18"/>
<text text-anchor="middle" x="255.49" y="-301.8" font-family="Times,serif" font-size="14.00">end of program</text>
</g>
<!-- 24&#45;&gt;9 -->
<g id="edge17" class="edge">
<title>24&#45;&gt;9</title>
<path fill="none" stroke="black" d="M256.24,-359.7C256.13,-351.98 256,-342.71 255.88,-334.11"/>
<polygon fill="black" stroke="black" points="259.38,-334.05 255.74,-324.1 252.38,-334.15 259.38,-334.05"/>
</g>
</g>
</svg>
