<svg width="139px" height="260px"
 viewBox="0.00 0.00 138.97 260.00" xmlns="http://www.w3.org/2000/svg" xmlns:xlink="http://www.w3.org/1999/xlink">
<g id="graph0" class="graph" transform="scale(1.0 1.0) rotate(0) translate(4 256)">
<title>graph</title>
<polygon fill="white" stroke="transparent" points="-4,4 -4,-256 134.97,-256 134.97,4 -4,4"/>
<!-- 25 -->
<g id="node1" class="node">
<title>25</title>
<ellipse fill="none" stroke="black" cx="65.49" cy="-234" rx="65.47" ry="18"/>
<text text-anchor="middle" x="65.49" y="-229.8" font-family="Times,serif" font-size="14.00">Method: main</text>
</g>
<!-- 27 -->
<g id="node2" class="node">
<title>27</title>
<polygon fill="none" stroke="black" points="100.38,-180 30.59,-180 30.59,-144 100.38,-144 100.38,-180"/>
<text text-anchor="middle" x="65.49" y="-157.8" font-family="Times,serif" font-size="14.00">int a = 12</text>
</g>
<!-- 25&#45;&gt;27 -->
<g id="edge1" class="edge">
<title>25&#45;&gt;27</title>
<path fill="none" stroke="black" d="M65.49,-215.7C65.49,-207.98 65.49,-198.71 65.49,-190.11"/>
<polygon fill="black" stroke="black" points="68.99,-190.1 65.49,-180.1 61.99,-190.1 68.99,-190.1"/>
</g>
<!-- 29 -->
<g id="node3" class="node">
<title>29</title>
<polygon fill="none" stroke="black" points="65.49,-108 11.49,-108 11.49,-72 65.49,-72 65.49,-108"/>
<text text-anchor="middle" x="38.49" y="-85.8" font-family="Times,serif" font-size="14.00">a&#45;&#45;</text>
</g>
<!-- 27&#45;&gt;29 -->
<g id="edge2" class="edge">
<title>27&#45;&gt;29</title>
<path fill="none" stroke="black" d="M58.81,-143.7C55.77,-135.81 52.1,-126.3 48.72,-117.55"/>
<polygon fill="black" stroke="black" points="51.95,-116.17 45.08,-108.1 45.42,-118.69 51.95,-116.17"/>
</g>
<!-- 28 -->
<g id="node4" class="node">
<title>28</title>
<polygon fill="none" stroke="orange" points="65.49,-36 22.43,-18 65.49,0 108.54,-18 65.49,-36"/>
<text text-anchor="middle" x="65.49" y="-13.8" font-family="Times,serif" font-size="14.00">a &gt; 5</text>
</g>
<!-- 29&#45;&gt;28 -->
<g id="edge3" class="edge">
<title>29&#45;&gt;28</title>
<path fill="none" stroke="black" d="M45.16,-71.7C48.46,-63.13 52.5,-52.65 56.11,-43.3"/>
<polygon fill="black" stroke="black" points="59.47,-44.33 59.8,-33.74 52.94,-41.81 59.47,-44.33"/>
</g>
<!-- 28&#45;&gt;27 -->
<g id="edge4" class="edge">
<title>28&#45;&gt;27</title>
<path fill="none" stroke="black" d="M68.86,-34.68C70.95,-45.18 73.42,-59.35 74.49,-72 75.83,-87.94 75.83,-92.06 74.49,-108 73.77,-116.5 72.42,-125.69 70.97,-133.99"/>
<polygon fill="black" stroke="black" points="67.52,-133.44 69.14,-143.91 74.4,-134.71 67.52,-133.44"/>
</g>
</g>
</svg>
