<svg width="457px" height="1052px"
 viewBox="0.00 0.00 457.05 1052.00" xmlns="http://www.w3.org/2000/svg" xmlns:xlink="http://www.w3.org/1999/xlink">
<g id="graph0" class="graph" transform="scale(1.0 1.0) rotate(0) translate(4 1048)">
<title>graph</title>
<polygon fill="white" stroke="transparent" points="-4,4 -4,-1048 453.05,-1048 453.05,4 -4,4"/>
<!-- 30 -->
<g id="node1" class="node">
<title>30</title>
<ellipse fill="none" stroke="black" cx="188.82" cy="-1026" rx="65.47" ry="18"/>
<text text-anchor="middle" x="188.82" y="-1021.8" font-family="Times,serif" font-size="14.00">Method: main</text>
</g>
<!-- 32 -->
<g id="node2" class="node">
<title>32</title>
<polygon fill="none" stroke="black" points="223.99,-972 153.64,-972 153.64,-936 223.99,-936 223.99,-972"/>
<text text-anchor="middle" x="188.82" y="-949.8" font-family="Times,serif" font-size="14.00">int n0 = 1</text>
</g>
<!-- 30&#45;&gt;32 -->
<g id="edge1" class="edge">
<title>30&#45;&gt;32</title>
<path fill="none" stroke="black" d="M188.82,-1007.7C188.82,-999.98 188.82,-990.71 188.82,-982.11"/>
<polygon fill="black" stroke="black" points="192.32,-982.1 188.82,-972.1 185.32,-982.1 192.32,-982.1"/>
</g>
<!-- 33 -->
<g id="node3" class="node">
<title>33</title>
<polygon fill="none" stroke="black" points="223.99,-900 153.64,-900 153.64,-864 223.99,-864 223.99,-900"/>
<text text-anchor="middle" x="188.82" y="-877.8" font-family="Times,serif" font-size="14.00">int n1 = 1</text>
</g>
<!-- 32&#45;&gt;33 -->
<g id="edge2" class="edge">
<title>32&#45;&gt;33</title>
<path fill="none" stroke="black" d="M188.82,-935.7C188.82,-927.98 188.82,-918.71 188.82,-910.11"/>
<polygon fill="black" stroke="black" points="192.32,-910.1 188.82,-900.1 185.32,-910.1 192.32,-910.1"/>
</g>
<!-- 34 -->
<g id="node4" class="node">
<title>34</title>
<polygon fill="none" stroke="black" points="223.99,-828 153.64,-828 153.64,-792 223.99,-792 223.99,-828"/>
<text text-anchor="middle" x="188.82" y="-805.8" font-family="Times,serif" font-size="14.00">int n2 = 0</text>
</g>
<!-- 33&#45;&gt;34 -->
<g id="edge3" class="edge">
<title>33&#45;&gt;34</title>
<path fill="none" stroke="black" d="M188.82,-863.7C188.82,-855.98 188.82,-846.71 188.82,-838.11"/>
<polygon fill="black" stroke="black" points="192.32,-838.1 188.82,-828.1 185.32,-838.1 192.32,-838.1"/>
</g>
<!-- 35 -->
<g id="node5" class="node">
<title>35</title>
<polygon fill="none" stroke="black" points="299.22,-756 78.41,-756 78.41,-720 299.22,-720 299.22,-756"/>
<text text-anchor="middle" x="188.82" y="-733.8" font-family="Times,serif" font-size="14.00">System.out.print(n0 + &quot; &quot; + n1 + &quot; &quot;)</text>
</g>
<!-- 34&#45;&gt;35 -->
<g id="edge4" class="edge">
<title>34&#45;&gt;35</title>
<path fill="none" stroke="black" d="M188.82,-791.7C188.82,-783.98 188.82,-774.71 188.82,-766.11"/>
<polygon fill="black" stroke="black" points="192.32,-766.1 188.82,-756.1 185.32,-766.1 192.32,-766.1"/>
</g>
<!-- 36 -->
<g id="node6" class="node">
<title>36</title>
<polygon fill="none" stroke="orange" points="218.88,-684 158.75,-684 158.75,-648 218.88,-648 218.88,-684"/>
<text text-anchor="middle" x="188.82" y="-661.8" font-family="Times,serif" font-size="14.00">int i = 3</text>
</g>
<!-- 35&#45;&gt;36 -->
<g id="edge5" class="edge">
<title>35&#45;&gt;36</title>
<path fill="none" stroke="black" d="M188.82,-719.7C188.82,-711.98 188.82,-702.71 188.82,-694.11"/>
<polygon fill="black" stroke="black" points="192.32,-694.1 188.82,-684.1 185.32,-694.1 192.32,-694.1"/>
</g>
<!-- 37 -->
<g id="node7" class="node">
<title>37</title>
<polygon fill="none" stroke="orange" points="188.82,-612 133.73,-594 188.82,-576 243.9,-594 188.82,-612"/>
<text text-anchor="middle" x="188.82" y="-589.8" font-family="Times,serif" font-size="14.00">i &lt;= 11</text>
</g>
<!-- 36&#45;&gt;37 -->
<g id="edge6" class="edge">
<title>36&#45;&gt;37</title>
<path fill="none" stroke="black" d="M188.82,-647.7C188.82,-639.98 188.82,-630.71 188.82,-622.11"/>
<polygon fill="black" stroke="black" points="192.32,-622.1 188.82,-612.1 185.32,-622.1 192.32,-622.1"/>
</g>
<!-- 39 -->
<g id="node8" class="node">
<title>39</title>
<polygon fill="none" stroke="black" points="149.61,-540 62.03,-540 62.03,-504 149.61,-504 149.61,-540"/>
<text text-anchor="middle" x="105.82" y="-517.8" font-family="Times,serif" font-size="14.00">n2 = n0 + n1</text>
</g>
<!-- 37&#45;&gt;39 -->
<g id="edge7" class="edge">
<title>37&#45;&gt;39</title>
<path fill="none" stroke="black" d="M173.98,-580.49C162.93,-571.17 147.52,-558.17 134.15,-546.89"/>
<polygon fill="black" stroke="black" points="136.04,-543.91 126.14,-540.14 131.53,-549.26 136.04,-543.91"/>
</g>
<!-- 48 -->
<g id="node13" class="node">
<title>48</title>
<polygon fill="none" stroke="black" points="428.65,-252 216.99,-252 216.99,-216 428.65,-216 428.65,-252"/>
<text text-anchor="middle" x="322.82" y="-229.8" font-family="Times,serif" font-size="14.00">System.out.println(&quot;end program&quot;)</text>
</g>
<!-- 37&#45;&gt;48 -->
<g id="edge8" class="edge">
<title>37&#45;&gt;48</title>
<path fill="none" stroke="black" d="M203.02,-580.47C227.44,-557.46 274.82,-505.76 274.82,-451 274.82,-451 274.82,-451 274.82,-377 274.82,-334.87 294.02,-289.23 308.13,-261.37"/>
<polygon fill="black" stroke="black" points="311.34,-262.78 312.87,-252.29 305.14,-259.54 311.34,-262.78"/>
</g>
<!-- 40 -->
<g id="node9" class="node">
<title>40</title>
<polygon fill="none" stroke="blue" points="94.82,-468 30.76,-450 94.82,-432 158.88,-450 94.82,-468"/>
<text text-anchor="middle" x="94.82" y="-445.8" font-family="Times,serif" font-size="14.00">n1 &gt; 150</text>
</g>
<!-- 39&#45;&gt;40 -->
<g id="edge9" class="edge">
<title>39&#45;&gt;40</title>
<path fill="none" stroke="black" d="M103.1,-503.7C101.87,-495.87 100.38,-486.44 99.02,-477.73"/>
<polygon fill="black" stroke="black" points="102.44,-476.96 97.43,-467.62 95.52,-478.04 102.44,-476.96"/>
</g>
<!-- 38 -->
<g id="node10" class="node">
<title>38</title>
<polygon fill="none" stroke="orange" points="122.82,-36 68.82,-36 68.82,0 122.82,0 122.82,-36"/>
<text text-anchor="middle" x="95.82" y="-13.8" font-family="Times,serif" font-size="14.00">i++</text>
</g>
<!-- 40&#45;&gt;38 -->
<g id="edge10" class="edge">
<title>40&#45;&gt;38</title>
<path fill="none" stroke="black" d="M71.57,-438.45C54.61,-429.54 32.46,-415.17 19.82,-396 -2.45,-362.23 0.82,-347.45 0.82,-307 0.82,-307 0.82,-307 0.82,-161 0.82,-113.01 38.76,-68.96 66.69,-43.04"/>
<polygon fill="black" stroke="black" points="69.17,-45.52 74.26,-36.22 64.49,-40.31 69.17,-45.52"/>
</g>
<!-- 42 -->
<g id="node11" class="node">
<title>42</title>
<polygon fill="none" stroke="black" points="160.69,-396 28.94,-396 28.94,-360 160.69,-360 160.69,-396"/>
<text text-anchor="middle" x="94.82" y="-373.8" font-family="Times,serif" font-size="14.00">System.out.print(n2)</text>
</g>
<!-- 40&#45;&gt;42 -->
<g id="edge11" class="edge">
<title>40&#45;&gt;42</title>
<path fill="none" stroke="black" d="M94.82,-431.7C94.82,-423.98 94.82,-414.71 94.82,-406.11"/>
<polygon fill="black" stroke="black" points="98.32,-406.1 94.82,-396.1 91.32,-406.1 98.32,-406.1"/>
</g>
<!-- 38&#45;&gt;37 -->
<g id="edge12" class="edge">
<title>38&#45;&gt;37</title>
<path fill="none" stroke="black" d="M116.92,-36.32C144.36,-60.92 188.82,-108.84 188.82,-161 188.82,-451 188.82,-451 188.82,-451 188.82,-491 188.82,-537.35 188.82,-565.92"/>
<polygon fill="black" stroke="black" points="185.32,-565.95 188.82,-575.95 192.32,-565.95 185.32,-565.95"/>
</g>
<!-- 43 -->
<g id="node12" class="node">
<title>43</title>
<polygon fill="none" stroke="blue" points="95.82,-324 31.76,-306 95.82,-288 159.88,-306 95.82,-324"/>
<text text-anchor="middle" x="95.82" y="-301.8" font-family="Times,serif" font-size="14.00">n2 &gt; 200</text>
</g>
<!-- 42&#45;&gt;43 -->
<g id="edge13" class="edge">
<title>42&#45;&gt;43</title>
<path fill="none" stroke="black" d="M95.06,-359.7C95.17,-351.98 95.31,-342.71 95.43,-334.11"/>
<polygon fill="black" stroke="black" points="98.93,-334.15 95.57,-324.1 91.93,-334.05 98.93,-334.15"/>
</g>
<!-- 43&#45;&gt;48 -->
<g id="edge14" class="edge">
<title>43&#45;&gt;48</title>
<path fill="none" stroke="black" d="M125.03,-295.99C158.43,-285.69 214.13,-268.52 257.93,-255.01"/>
<polygon fill="black" stroke="black" points="259.12,-258.3 267.64,-252.01 257.06,-251.62 259.12,-258.3"/>
</g>
<!-- 45 -->
<g id="node17" class="node">
<title>45</title>
<polygon fill="none" stroke="black" points="143.11,-252 48.53,-252 48.53,-216 143.11,-216 143.11,-252"/>
<text text-anchor="middle" x="95.82" y="-229.8" font-family="Times,serif" font-size="14.00">n0 = n1 + 100</text>
</g>
<!-- 43&#45;&gt;45 -->
<g id="edge15" class="edge">
<title>43&#45;&gt;45</title>
<path fill="none" stroke="black" d="M95.82,-287.7C95.82,-279.98 95.82,-270.71 95.82,-262.11"/>
<polygon fill="black" stroke="black" points="99.32,-262.1 95.82,-252.1 92.32,-262.1 99.32,-262.1"/>
</g>
<!-- 49 -->
<g id="node14" class="node">
<title>49</title>
<polygon fill="none" stroke="black" points="371.61,-180 284.03,-180 284.03,-144 371.61,-144 371.61,-180"/>
<text text-anchor="middle" x="327.82" y="-157.8" font-family="Times,serif" font-size="14.00">n0 = n1 + n2</text>
</g>
<!-- 48&#45;&gt;49 -->
<g id="edge16" class="edge">
<title>48&#45;&gt;49</title>
<path fill="none" stroke="black" d="M324.05,-215.7C324.6,-207.98 325.27,-198.71 325.88,-190.11"/>
<polygon fill="black" stroke="black" points="329.37,-190.33 326.59,-180.1 322.39,-189.83 329.37,-190.33"/>
</g>
<!-- 50 -->
<g id="node15" class="node">
<title>50</title>
<polygon fill="none" stroke="black" points="449.29,-108 216.35,-108 216.35,-72 449.29,-72 449.29,-108"/>
<text text-anchor="middle" x="332.82" y="-85.8" font-family="Times,serif" font-size="14.00">System.out.println(&quot;Any output&quot; + n0)</text>
</g>
<!-- 49&#45;&gt;50 -->
<g id="edge17" class="edge">
<title>49&#45;&gt;50</title>
<path fill="none" stroke="black" d="M329.05,-143.7C329.6,-135.98 330.27,-126.71 330.88,-118.11"/>
<polygon fill="black" stroke="black" points="334.37,-118.33 331.59,-108.1 327.39,-117.83 334.37,-118.33"/>
</g>
<!-- 31 -->
<g id="node16" class="node">
<title>31</title>
<ellipse fill="none" stroke="black" cx="332.82" cy="-18" rx="70.63" ry="18"/>
<text text-anchor="middle" x="332.82" y="-13.8" font-family="Times,serif" font-size="14.00">end of program</text>
</g>
<!-- 50&#45;&gt;31 -->
<g id="edge18" class="edge">
<title>50&#45;&gt;31</title>
<path fill="none" stroke="black" d="M332.82,-71.7C332.82,-63.98 332.82,-54.71 332.82,-46.11"/>
<polygon fill="black" stroke="black" points="336.32,-46.1 332.82,-36.1 329.32,-46.1 336.32,-46.1"/>
</g>
<!-- 46 -->
<g id="node18" class="node">
<title>46</title>
<polygon fill="none" stroke="black" points="133,-180 58.63,-180 58.63,-144 133,-144 133,-180"/>
<text text-anchor="middle" x="95.82" y="-157.8" font-family="Times,serif" font-size="14.00">n0 = n1++</text>
</g>
<!-- 45&#45;&gt;46 -->
<g id="edge19" class="edge">
<title>45&#45;&gt;46</title>
<path fill="none" stroke="black" d="M95.82,-215.7C95.82,-207.98 95.82,-198.71 95.82,-190.11"/>
<polygon fill="black" stroke="black" points="99.32,-190.1 95.82,-180.1 92.32,-190.1 99.32,-190.1"/>
</g>
<!-- 47 -->
<g id="node19" class="node">
<title>47</title>
<polygon fill="none" stroke="black" points="133,-108 58.63,-108 58.63,-72 133,-72 133,-108"/>
<text text-anchor="middle" x="95.82" y="-85.8" font-family="Times,serif" font-size="14.00">n1 = n2++</text>
</g>
<!-- 46&#45;&gt;47 -->
<g id="edge20" class="edge">
<title>46&#45;&gt;47</title>
<path fill="none" stroke="black" d="M95.82,-143.7C95.82,-135.98 95.82,-126.71 95.82,-118.11"/>
<polygon fill="black" stroke="black" points="99.32,-118.1 95.82,-108.1 92.32,-118.1 99.32,-118.1"/>
</g>
<!-- 47&#45;&gt;38 -->
<g id="edge21" class="edge">
<title>47&#45;&gt;38</title>
<path fill="none" stroke="black" d="M95.82,-71.7C95.82,-63.98 95.82,-54.71 95.82,-46.11"/>
<polygon fill="black" stroke="black" points="99.32,-46.1 95.82,-36.1 92.32,-46.1 99.32,-46.1"/>
</g>
</g>
</svg>
