<svg width="293px" height="692px"
 viewBox="0.00 0.00 293.03 692.00" xmlns="http://www.w3.org/2000/svg" xmlns:xlink="http://www.w3.org/1999/xlink">
<g id="graph0" class="graph" transform="scale(1.0 1.0) rotate(0) translate(4 688)">
<title>graph</title>
<polygon fill="white" stroke="transparent" points="-4,4 -4,-688 289.03,-688 289.03,4 -4,4"/>
<!-- 51 -->
<g id="node1" class="node">
<title>51</title>
<ellipse fill="none" stroke="black" cx="175.57" cy="-666" rx="109.43" ry="18"/>
<text text-anchor="middle" x="175.57" y="-661.8" font-family="Times,serif" font-size="14.00">Method: forWithBrAndC</text>
</g>
<!-- 53 -->
<g id="node2" class="node">
<title>53</title>
<polygon fill="none" stroke="black" points="213.96,-612 137.17,-612 137.17,-576 213.96,-576 213.96,-612"/>
<text text-anchor="middle" x="175.57" y="-589.8" font-family="Times,serif" font-size="14.00">int a = 100</text>
</g>
<!-- 51&#45;&gt;53 -->
<g id="edge1" class="edge">
<title>51&#45;&gt;53</title>
<path fill="none" stroke="black" d="M175.57,-647.7C175.57,-639.98 175.57,-630.71 175.57,-622.11"/>
<polygon fill="black" stroke="black" points="179.07,-622.1 175.57,-612.1 172.07,-622.1 179.07,-622.1"/>
</g>
<!-- 54 -->
<g id="node3" class="node">
<title>54</title>
<polygon fill="none" stroke="black" points="206.96,-540 144.17,-540 144.17,-504 206.96,-504 206.96,-540"/>
<text text-anchor="middle" x="175.57" y="-517.8" font-family="Times,serif" font-size="14.00">int c = 0</text>
</g>
<!-- 53&#45;&gt;54 -->
<g id="edge2" class="edge">
<title>53&#45;&gt;54</title>
<path fill="none" stroke="black" d="M175.57,-575.7C175.57,-567.98 175.57,-558.71 175.57,-550.11"/>
<polygon fill="black" stroke="black" points="179.07,-550.1 175.57,-540.1 172.07,-550.1 179.07,-550.1"/>
</g>
<!-- 55 -->
<g id="node4" class="node">
<title>55</title>
<polygon fill="none" stroke="orange" points="205.63,-468 145.5,-468 145.5,-432 205.63,-432 205.63,-468"/>
<text text-anchor="middle" x="175.57" y="-445.8" font-family="Times,serif" font-size="14.00">int i = 0</text>
</g>
<!-- 54&#45;&gt;55 -->
<g id="edge3" class="edge">
<title>54&#45;&gt;55</title>
<path fill="none" stroke="black" d="M175.57,-503.7C175.57,-495.98 175.57,-486.71 175.57,-478.11"/>
<polygon fill="black" stroke="black" points="179.07,-478.1 175.57,-468.1 172.07,-478.1 179.07,-478.1"/>
</g>
<!-- 56 -->
<g id="node5" class="node">
<title>56</title>
<polygon fill="none" stroke="orange" points="175.57,-396 135.58,-378 175.57,-360 215.56,-378 175.57,-396"/>
<text text-anchor="middle" x="175.57" y="-373.8" font-family="Times,serif" font-size="14.00">i &lt; a</text>
</g>
<!-- 55&#45;&gt;56 -->
<g id="edge4" class="edge">
<title>55&#45;&gt;56</title>
<path fill="none" stroke="black" d="M175.57,-431.7C175.57,-423.98 175.57,-414.71 175.57,-406.11"/>
<polygon fill="black" stroke="black" points="179.07,-406.1 175.57,-396.1 172.07,-406.1 179.07,-406.1"/>
</g>
<!-- 52 -->
<g id="node6" class="node">
<title>52</title>
<ellipse fill="none" stroke="black" cx="70.57" cy="-90" rx="70.63" ry="18"/>
<text text-anchor="middle" x="70.57" y="-85.8" font-family="Times,serif" font-size="14.00">end of program</text>
</g>
<!-- 56&#45;&gt;52 -->
<g id="edge5" class="edge">
<title>56&#45;&gt;52</title>
<path fill="none" stroke="black" d="M163.59,-365.23C143.4,-344.51 103.21,-299.24 86.57,-252 70.72,-207.01 68.85,-150.87 69.4,-118.17"/>
<polygon fill="black" stroke="black" points="72.9,-118.11 69.66,-108.02 65.9,-117.93 72.9,-118.11"/>
</g>
<!-- 58 -->
<g id="node7" class="node">
<title>58</title>
<polygon fill="none" stroke="black" points="208.28,-324 142.85,-324 142.85,-288 208.28,-288 208.28,-324"/>
<text text-anchor="middle" x="175.57" y="-301.8" font-family="Times,serif" font-size="14.00">c = c + 1</text>
</g>
<!-- 56&#45;&gt;58 -->
<g id="edge6" class="edge">
<title>56&#45;&gt;58</title>
<path fill="none" stroke="black" d="M175.57,-359.7C175.57,-351.98 175.57,-342.71 175.57,-334.11"/>
<polygon fill="black" stroke="black" points="179.07,-334.1 175.57,-324.1 172.07,-334.1 179.07,-334.1"/>
</g>
<!-- 59 -->
<g id="node8" class="node">
<title>59</title>
<polygon fill="none" stroke="blue" points="175.57,-252 95.42,-234 175.57,-216 255.71,-234 175.57,-252"/>
<text text-anchor="middle" x="175.57" y="-229.8" font-family="Times,serif" font-size="14.00">i % 10 == 0</text>
</g>
<!-- 58&#45;&gt;59 -->
<g id="edge7" class="edge">
<title>58&#45;&gt;59</title>
<path fill="none" stroke="black" d="M175.57,-287.7C175.57,-279.98 175.57,-270.71 175.57,-262.11"/>
<polygon fill="black" stroke="black" points="179.07,-262.1 175.57,-252.1 172.07,-262.1 179.07,-262.1"/>
</g>
<!-- 60 -->
<g id="node9" class="node">
<title>60</title>
<polygon fill="none" stroke="black" points="158.67,-180 96.46,-180 96.46,-144 158.67,-144 158.67,-180"/>
<text text-anchor="middle" x="127.57" y="-157.8" font-family="Times,serif" font-size="14.00">c = c + i</text>
</g>
<!-- 59&#45;&gt;60 -->
<g id="edge8" class="edge">
<title>59&#45;&gt;60</title>
<path fill="none" stroke="black" d="M165.39,-218.15C159.47,-209.53 151.85,-198.42 145.01,-188.43"/>
<polygon fill="black" stroke="black" points="147.79,-186.31 139.25,-180.04 142.02,-190.27 147.79,-186.31"/>
</g>
<!-- 62 -->
<g id="node10" class="node">
<title>62</title>
<polygon fill="none" stroke="black" points="234.57,-180 180.57,-180 180.57,-144 234.57,-144 234.57,-180"/>
<text text-anchor="middle" x="207.57" y="-157.8" font-family="Times,serif" font-size="14.00">a = 1</text>
</g>
<!-- 59&#45;&gt;62 -->
<g id="edge9" class="edge">
<title>59&#45;&gt;62</title>
<path fill="none" stroke="black" d="M182.67,-217.46C186.38,-209.33 191.04,-199.15 195.32,-189.79"/>
<polygon fill="black" stroke="black" points="198.61,-191.01 199.58,-180.46 192.24,-188.1 198.61,-191.01"/>
</g>
<!-- 60&#45;&gt;52 -->
<g id="edge10" class="edge">
<title>60&#45;&gt;52</title>
<path fill="none" stroke="black" d="M113.48,-143.7C106.64,-135.3 98.31,-125.07 90.81,-115.86"/>
<polygon fill="black" stroke="black" points="93.52,-113.65 84.49,-108.1 88.09,-118.07 93.52,-113.65"/>
</g>
<!-- 63 -->
<g id="node11" class="node">
<title>63</title>
<polygon fill="none" stroke="black" points="253.39,-108 163.74,-108 163.74,-72 253.39,-72 253.39,-108"/>
<text text-anchor="middle" x="208.57" y="-85.8" font-family="Times,serif" font-size="14.00">c = c + (i / 2)</text>
</g>
<!-- 62&#45;&gt;63 -->
<g id="edge11" class="edge">
<title>62&#45;&gt;63</title>
<path fill="none" stroke="black" d="M207.81,-143.7C207.92,-135.98 208.06,-126.71 208.18,-118.11"/>
<polygon fill="black" stroke="black" points="211.68,-118.15 208.32,-108.1 204.68,-118.05 211.68,-118.15"/>
</g>
<!-- 57 -->
<g id="node12" class="node">
<title>57</title>
<polygon fill="none" stroke="orange" points="271.57,-36 217.57,-36 217.57,0 271.57,0 271.57,-36"/>
<text text-anchor="middle" x="244.57" y="-13.8" font-family="Times,serif" font-size="14.00">i++</text>
</g>
<!-- 63&#45;&gt;57 -->
<g id="edge12" class="edge">
<title>63&#45;&gt;57</title>
<path fill="none" stroke="black" d="M217.46,-71.7C221.56,-63.73 226.51,-54.1 231.06,-45.26"/>
<polygon fill="black" stroke="black" points="234.31,-46.6 235.77,-36.1 228.08,-43.4 234.31,-46.6"/>
</g>
<!-- 57&#45;&gt;56 -->
<g id="edge13" class="edge">
<title>57&#45;&gt;56</title>
<path fill="none" stroke="black" d="M252.46,-36.07C263.85,-62.33 283.57,-114.47 283.57,-161 283.57,-235 283.57,-235 283.57,-235 283.57,-290.21 231.21,-337.38 199.4,-360.94"/>
<polygon fill="black" stroke="black" points="197.12,-358.27 191.04,-366.94 201.2,-363.95 197.12,-358.27"/>
</g>
</g>
</svg>
