<svg width="452px" height="620px"
 viewBox="0.00 0.00 452.41 620.00" xmlns="http://www.w3.org/2000/svg" xmlns:xlink="http://www.w3.org/1999/xlink">
<g id="graph0" class="graph" transform="scale(1.0 1.0) rotate(0) translate(4 616)">
<title>graph</title>
<polygon fill="white" stroke="transparent" points="-4,4 -4,-616 448.41,-616 448.41,4 -4,4"/>
<!-- 64 -->
<g id="node1" class="node">
<title>64</title>
<ellipse fill="none" stroke="black" cx="353.54" cy="-594" rx="62.6" ry="18"/>
<text text-anchor="middle" x="353.54" y="-589.8" font-family="Times,serif" font-size="14.00">Method: max</text>
</g>
<!-- 66 -->
<g id="node2" class="node">
<title>66</title>
<polygon fill="none" stroke="black" points="429.06,-540 278.01,-540 278.01,-504 429.06,-504 429.06,-540"/>
<text text-anchor="middle" x="353.54" y="-517.8" font-family="Times,serif" font-size="14.00">int maximum = array[0]</text>
</g>
<!-- 64&#45;&gt;66 -->
<g id="edge1" class="edge">
<title>64&#45;&gt;66</title>
<path fill="none" stroke="black" d="M353.54,-575.7C353.54,-567.98 353.54,-558.71 353.54,-550.11"/>
<polygon fill="black" stroke="black" points="357.04,-550.1 353.54,-540.1 350.04,-550.1 357.04,-550.1"/>
</g>
<!-- 67 -->
<g id="node3" class="node">
<title>67</title>
<polygon fill="none" stroke="black" points="404.82,-468 302.25,-468 302.25,-432 404.82,-432 404.82,-468"/>
<text text-anchor="middle" x="353.54" y="-445.8" font-family="Times,serif" font-size="14.00">int[] arr = array</text>
</g>
<!-- 66&#45;&gt;67 -->
<g id="edge2" class="edge">
<title>66&#45;&gt;67</title>
<path fill="none" stroke="black" d="M353.54,-503.7C353.54,-495.98 353.54,-486.71 353.54,-478.11"/>
<polygon fill="black" stroke="black" points="357.04,-478.1 353.54,-468.1 350.04,-478.1 357.04,-478.1"/>
</g>
<!-- 68 -->
<g id="node4" class="node">
<title>68</title>
<polygon fill="none" stroke="orange" points="383.6,-396 323.47,-396 323.47,-360 383.6,-360 383.6,-396"/>
<text text-anchor="middle" x="353.54" y="-373.8" font-family="Times,serif" font-size="14.00">int i = 0</text>
</g>
<!-- 67&#45;&gt;68 -->
<g id="edge3" class="edge">
<title>67&#45;&gt;68</title>
<path fill="none" stroke="black" d="M353.54,-431.7C353.54,-423.98 353.54,-414.71 353.54,-406.11"/>
<polygon fill="black" stroke="black" points="357.04,-406.1 353.54,-396.1 350.04,-406.1 357.04,-406.1"/>
</g>
<!-- 69 -->
<g id="node5" class="node">
<title>69</title>
<polygon fill="none" stroke="orange" points="353.54,-324 266.76,-306 353.54,-288 440.32,-306 353.54,-324"/>
<text text-anchor="middle" x="353.54" y="-301.8" font-family="Times,serif" font-size="14.00">i &lt; arr.length</text>
</g>
<!-- 68&#45;&gt;69 -->
<g id="edge4" class="edge">
<title>68&#45;&gt;69</title>
<path fill="none" stroke="black" d="M353.54,-359.7C353.54,-351.98 353.54,-342.71 353.54,-334.11"/>
<polygon fill="black" stroke="black" points="357.04,-334.1 353.54,-324.1 350.04,-334.1 357.04,-334.1"/>
</g>
<!-- 71 -->
<g id="node6" class="node">
<title>71</title>
<polygon fill="none" stroke="black" points="238.66,-252 112.42,-252 112.42,-216 238.66,-216 238.66,-252"/>
<text text-anchor="middle" x="175.54" y="-229.8" font-family="Times,serif" font-size="14.00">int compare = arr[i]</text>
</g>
<!-- 69&#45;&gt;71 -->
<g id="edge5" class="edge">
<title>69&#45;&gt;71</title>
<path fill="none" stroke="black" d="M324.94,-293.75C299.02,-283.56 260.17,-268.28 228.58,-255.86"/>
<polygon fill="black" stroke="black" points="229.62,-252.51 219.03,-252.1 227.06,-259.02 229.62,-252.51"/>
</g>
<!-- 74 -->
<g id="node10" class="node">
<title>74</title>
<polygon fill="none" stroke="black" points="408.24,-252 298.83,-252 298.83,-216 408.24,-216 408.24,-252"/>
<text text-anchor="middle" x="353.54" y="-229.8" font-family="Times,serif" font-size="14.00">return maximum</text>
</g>
<!-- 69&#45;&gt;74 -->
<g id="edge6" class="edge">
<title>69&#45;&gt;74</title>
<path fill="none" stroke="black" d="M353.54,-287.7C353.54,-279.98 353.54,-270.71 353.54,-262.11"/>
<polygon fill="black" stroke="black" points="357.04,-262.1 353.54,-252.1 350.04,-262.1 357.04,-262.1"/>
</g>
<!-- 72 -->
<g id="node7" class="node">
<title>72</title>
<polygon fill="none" stroke="blue" points="132.54,-180 -0.04,-162 132.54,-144 265.11,-162 132.54,-180"/>
<text text-anchor="middle" x="132.54" y="-157.8" font-family="Times,serif" font-size="14.00">maximum &lt; compare</text>
</g>
<!-- 71&#45;&gt;72 -->
<g id="edge7" class="edge">
<title>71&#45;&gt;72</title>
<path fill="none" stroke="black" d="M164.91,-215.7C159.76,-207.32 153.48,-197.1 147.83,-187.9"/>
<polygon fill="black" stroke="black" points="150.67,-185.83 142.46,-179.14 144.71,-189.5 150.67,-185.83"/>
</g>
<!-- 73 -->
<g id="node8" class="node">
<title>73</title>
<polygon fill="none" stroke="black" points="312.4,-108 176.67,-108 176.67,-72 312.4,-72 312.4,-108"/>
<text text-anchor="middle" x="244.54" y="-85.8" font-family="Times,serif" font-size="14.00">maximum = compare</text>
</g>
<!-- 72&#45;&gt;73 -->
<g id="edge8" class="edge">
<title>72&#45;&gt;73</title>
<path fill="none" stroke="black" d="M154.93,-147C170.15,-137.49 190.63,-124.69 208.17,-113.73"/>
<polygon fill="black" stroke="black" points="210.4,-116.46 217.03,-108.19 206.69,-110.53 210.4,-116.46"/>
</g>
<!-- 70 -->
<g id="node9" class="node">
<title>70</title>
<polygon fill="none" stroke="orange" points="319.54,-36 265.54,-36 265.54,0 319.54,0 319.54,-36"/>
<text text-anchor="middle" x="292.54" y="-13.8" font-family="Times,serif" font-size="14.00">i++</text>
</g>
<!-- 73&#45;&gt;70 -->
<g id="edge9" class="edge">
<title>73&#45;&gt;70</title>
<path fill="none" stroke="black" d="M256.4,-71.7C262.04,-63.47 268.89,-53.48 275.11,-44.42"/>
<polygon fill="black" stroke="black" points="278.04,-46.33 280.81,-36.1 272.27,-42.37 278.04,-46.33"/>
</g>
<!-- 70&#45;&gt;69 -->
<g id="edge10" class="edge">
<title>70&#45;&gt;69</title>
<path fill="none" stroke="black" d="M319.78,-33.45C353.76,-53.22 410.25,-92.24 433.54,-144 453.45,-188.25 442.86,-210.6 417.54,-252 409.1,-265.8 395.77,-277.68 383.46,-286.67"/>
<polygon fill="black" stroke="black" points="381.39,-283.85 375.17,-292.42 385.39,-289.6 381.39,-283.85"/>
</g>
<!-- 65 -->
<g id="node11" class="node">
<title>65</title>
<ellipse fill="none" stroke="black" cx="353.54" cy="-162" rx="70.63" ry="18"/>
<text text-anchor="middle" x="353.54" y="-157.8" font-family="Times,serif" font-size="14.00">end of program</text>
</g>
<!-- 74&#45;&gt;65 -->
<g id="edge11" class="edge">
<title>74&#45;&gt;65</title>
<path fill="none" stroke="black" d="M353.54,-215.7C353.54,-207.98 353.54,-198.71 353.54,-190.11"/>
<polygon fill="black" stroke="black" points="357.04,-190.1 353.54,-180.1 350.04,-190.1 357.04,-190.1"/>
</g>
</g>
</svg>
