<svg width="338px" height="908px"
 viewBox="0.00 0.00 338.21 908.00" xmlns="http://www.w3.org/2000/svg" xmlns:xlink="http://www.w3.org/1999/xlink">
<g id="graph0" class="graph" transform="scale(1.0 1.0) rotate(0) translate(4 904)">
<title>graph</title>
<polygon fill="white" stroke="transparent" points="-4,4 -4,-904 334.21,-904 334.21,4 -4,4"/>
<!-- 75 -->
<g id="node1" class="node">
<title>75</title>
<ellipse fill="none" stroke="black" cx="221.21" cy="-882" rx="96.69" ry="18"/>
<text text-anchor="middle" x="221.21" y="-877.8" font-family="Times,serif" font-size="14.00">Method: selectionSort</text>
</g>
<!-- 77 -->
<g id="node2" class="node">
<title>77</title>
<polygon fill="none" stroke="black" points="270.34,-828 172.09,-828 172.09,-792 270.34,-792 270.34,-828"/>
<text text-anchor="middle" x="221.21" y="-805.8" font-family="Times,serif" font-size="14.00">int[] array = ar</text>
</g>
<!-- 75&#45;&gt;77 -->
<g id="edge1" class="edge">
<title>75&#45;&gt;77</title>
<path fill="none" stroke="black" d="M221.21,-863.7C221.21,-855.98 221.21,-846.71 221.21,-838.11"/>
<polygon fill="black" stroke="black" points="224.71,-838.1 221.21,-828.1 217.71,-838.1 224.71,-838.1"/>
</g>
<!-- 78 -->
<g id="node3" class="node">
<title>78</title>
<polygon fill="none" stroke="orange" points="251.28,-756 191.15,-756 191.15,-720 251.28,-720 251.28,-756"/>
<text text-anchor="middle" x="221.21" y="-733.8" font-family="Times,serif" font-size="14.00">int i = 0</text>
</g>
<!-- 77&#45;&gt;78 -->
<g id="edge2" class="edge">
<title>77&#45;&gt;78</title>
<path fill="none" stroke="black" d="M221.21,-791.7C221.21,-783.98 221.21,-774.71 221.21,-766.11"/>
<polygon fill="black" stroke="black" points="224.71,-766.1 221.21,-756.1 217.71,-766.1 224.71,-766.1"/>
</g>
<!-- 79 -->
<g id="node4" class="node">
<title>79</title>
<polygon fill="none" stroke="orange" points="221.21,-684 121.65,-666 221.21,-648 320.78,-666 221.21,-684"/>
<text text-anchor="middle" x="221.21" y="-661.8" font-family="Times,serif" font-size="14.00">i &lt; array.length</text>
</g>
<!-- 78&#45;&gt;79 -->
<g id="edge3" class="edge">
<title>78&#45;&gt;79</title>
<path fill="none" stroke="black" d="M221.21,-719.7C221.21,-711.98 221.21,-702.71 221.21,-694.11"/>
<polygon fill="black" stroke="black" points="224.71,-694.1 221.21,-684.1 217.71,-694.1 224.71,-694.1"/>
</g>
<!-- 76 -->
<g id="node5" class="node">
<title>76</title>
<ellipse fill="none" stroke="black" cx="76.21" cy="-594" rx="70.63" ry="18"/>
<text text-anchor="middle" x="76.21" y="-589.8" font-family="Times,serif" font-size="14.00">end of program</text>
</g>
<!-- 79&#45;&gt;76 -->
<g id="edge4" class="edge">
<title>79&#45;&gt;76</title>
<path fill="none" stroke="black" d="M195.29,-652.49C173.55,-641.99 142.12,-626.81 117,-614.69"/>
<polygon fill="black" stroke="black" points="118.25,-611.41 107.72,-610.21 115.21,-617.71 118.25,-611.41"/>
</g>
<!-- 81 -->
<g id="node6" class="node">
<title>81</title>
<polygon fill="none" stroke="black" points="277.63,-612 164.79,-612 164.79,-576 277.63,-576 277.63,-612"/>
<text text-anchor="middle" x="221.21" y="-589.8" font-family="Times,serif" font-size="14.00">int min = array[i]</text>
</g>
<!-- 79&#45;&gt;81 -->
<g id="edge5" class="edge">
<title>79&#45;&gt;81</title>
<path fill="none" stroke="black" d="M221.21,-647.7C221.21,-639.98 221.21,-630.71 221.21,-622.11"/>
<polygon fill="black" stroke="black" points="224.71,-622.1 221.21,-612.1 217.71,-622.1 224.71,-622.1"/>
</g>
<!-- 82 -->
<g id="node7" class="node">
<title>82</title>
<polygon fill="none" stroke="black" points="251.22,-540 165.2,-540 165.2,-504 251.22,-504 251.22,-540"/>
<text text-anchor="middle" x="208.21" y="-517.8" font-family="Times,serif" font-size="14.00">int minId = i</text>
</g>
<!-- 81&#45;&gt;82 -->
<g id="edge6" class="edge">
<title>81&#45;&gt;82</title>
<path fill="none" stroke="black" d="M218,-575.7C216.57,-567.98 214.85,-558.71 213.25,-550.11"/>
<polygon fill="black" stroke="black" points="216.66,-549.3 211.39,-540.1 209.78,-550.58 216.66,-549.3"/>
</g>
<!-- 83 -->
<g id="node8" class="node">
<title>83</title>
<polygon fill="none" stroke="orange" points="225.57,-468 146.86,-468 146.86,-432 225.57,-432 225.57,-468"/>
<text text-anchor="middle" x="186.21" y="-445.8" font-family="Times,serif" font-size="14.00">int j = i + 1</text>
</g>
<!-- 82&#45;&gt;83 -->
<g id="edge7" class="edge">
<title>82&#45;&gt;83</title>
<path fill="none" stroke="black" d="M202.78,-503.7C200.32,-495.9 197.37,-486.51 194.65,-477.83"/>
<polygon fill="black" stroke="black" points="197.93,-476.59 191.59,-468.1 191.25,-478.69 197.93,-476.59"/>
</g>
<!-- 84 -->
<g id="node9" class="node">
<title>84</title>
<polygon fill="none" stroke="orange" points="173.21,-396 73.65,-378 173.21,-360 272.78,-378 173.21,-396"/>
<text text-anchor="middle" x="173.21" y="-373.8" font-family="Times,serif" font-size="14.00">j &lt; array.length</text>
</g>
<!-- 83&#45;&gt;84 -->
<g id="edge8" class="edge">
<title>83&#45;&gt;84</title>
<path fill="none" stroke="black" d="M183,-431.7C181.55,-423.87 179.79,-414.44 178.18,-405.73"/>
<polygon fill="black" stroke="black" points="181.57,-404.82 176.3,-395.62 174.69,-406.09 181.57,-404.82"/>
</g>
<!-- 86 -->
<g id="node10" class="node">
<title>86</title>
<polygon fill="none" stroke="black" points="112.35,-324 14.08,-324 14.08,-288 112.35,-288 112.35,-324"/>
<text text-anchor="middle" x="63.21" y="-301.8" font-family="Times,serif" font-size="14.00">int x = array[j]</text>
</g>
<!-- 84&#45;&gt;86 -->
<g id="edge9" class="edge">
<title>84&#45;&gt;86</title>
<path fill="none" stroke="black" d="M152.26,-363.67C137.19,-354.08 116.49,-340.9 98.84,-329.67"/>
<polygon fill="black" stroke="black" points="100.25,-326.42 89.93,-324 96.49,-332.32 100.25,-326.42"/>
</g>
<!-- 90 -->
<g id="node15" class="node">
<title>90</title>
<polygon fill="none" stroke="black" points="293.85,-324 174.58,-324 174.58,-288 293.85,-288 293.85,-324"/>
<text text-anchor="middle" x="234.21" y="-301.8" font-family="Times,serif" font-size="14.00">int temp = array[i]</text>
</g>
<!-- 84&#45;&gt;90 -->
<g id="edge10" class="edge">
<title>84&#45;&gt;90</title>
<path fill="none" stroke="black" d="M186.15,-362.15C193.82,-353.35 203.74,-341.97 212.58,-331.83"/>
<polygon fill="black" stroke="black" points="215.43,-333.88 219.36,-324.04 210.16,-329.28 215.43,-333.88"/>
</g>
<!-- 87 -->
<g id="node11" class="node">
<title>87</title>
<polygon fill="none" stroke="blue" points="58.21,-252 -0.21,-234 58.21,-216 116.64,-234 58.21,-252"/>
<text text-anchor="middle" x="58.21" y="-229.8" font-family="Times,serif" font-size="14.00">x &lt; min</text>
</g>
<!-- 86&#45;&gt;87 -->
<g id="edge11" class="edge">
<title>86&#45;&gt;87</title>
<path fill="none" stroke="black" d="M61.98,-287.7C61.43,-279.98 60.76,-270.71 60.15,-262.11"/>
<polygon fill="black" stroke="black" points="63.64,-261.83 59.44,-252.1 56.66,-262.33 63.64,-261.83"/>
</g>
<!-- 88 -->
<g id="node12" class="node">
<title>88</title>
<polygon fill="none" stroke="black" points="111.35,-180 17.07,-180 17.07,-144 111.35,-144 111.35,-180"/>
<text text-anchor="middle" x="64.21" y="-157.8" font-family="Times,serif" font-size="14.00">min = array[j]</text>
</g>
<!-- 87&#45;&gt;88 -->
<g id="edge12" class="edge">
<title>87&#45;&gt;88</title>
<path fill="none" stroke="black" d="M59.64,-216.41C60.3,-208.71 61.1,-199.34 61.85,-190.62"/>
<polygon fill="black" stroke="black" points="65.35,-190.71 62.72,-180.45 58.38,-190.11 65.35,-190.71"/>
</g>
<!-- 89 -->
<g id="node13" class="node">
<title>89</title>
<polygon fill="none" stroke="black" points="107.44,-108 38.99,-108 38.99,-72 107.44,-72 107.44,-108"/>
<text text-anchor="middle" x="73.21" y="-85.8" font-family="Times,serif" font-size="14.00">minId = j</text>
</g>
<!-- 88&#45;&gt;89 -->
<g id="edge13" class="edge">
<title>88&#45;&gt;89</title>
<path fill="none" stroke="black" d="M66.44,-143.7C67.43,-135.98 68.62,-126.71 69.73,-118.11"/>
<polygon fill="black" stroke="black" points="73.21,-118.47 71.01,-108.1 66.27,-117.58 73.21,-118.47"/>
</g>
<!-- 85 -->
<g id="node14" class="node">
<title>85</title>
<polygon fill="none" stroke="orange" points="131.21,-36 77.21,-36 77.21,0 131.21,0 131.21,-36"/>
<text text-anchor="middle" x="104.21" y="-13.8" font-family="Times,serif" font-size="14.00">j++</text>
</g>
<!-- 89&#45;&gt;85 -->
<g id="edge14" class="edge">
<title>89&#45;&gt;85</title>
<path fill="none" stroke="black" d="M80.88,-71.7C84.41,-63.73 88.67,-54.1 92.58,-45.26"/>
<polygon fill="black" stroke="black" points="95.79,-46.67 96.64,-36.1 89.39,-43.83 95.79,-46.67"/>
</g>
<!-- 85&#45;&gt;84 -->
<g id="edge15" class="edge">
<title>85&#45;&gt;84</title>
<path fill="none" stroke="black" d="M112.31,-36.05C124,-62.28 144.21,-114.39 144.21,-161 144.21,-235 144.21,-235 144.21,-235 144.21,-276.05 155.99,-322.46 164.54,-350.71"/>
<polygon fill="black" stroke="black" points="161.3,-352.1 167.62,-360.61 167.99,-350.02 161.3,-352.1"/>
</g>
<!-- 91 -->
<g id="node16" class="node">
<title>91</title>
<polygon fill="none" stroke="black" points="282.35,-252 188.07,-252 188.07,-216 282.35,-216 282.35,-252"/>
<text text-anchor="middle" x="235.21" y="-229.8" font-family="Times,serif" font-size="14.00">array[i] = min</text>
</g>
<!-- 90&#45;&gt;91 -->
<g id="edge16" class="edge">
<title>90&#45;&gt;91</title>
<path fill="none" stroke="black" d="M234.46,-287.7C234.57,-279.98 234.7,-270.71 234.83,-262.11"/>
<polygon fill="black" stroke="black" points="238.33,-262.15 234.97,-252.1 231.33,-262.05 238.33,-262.15"/>
</g>
<!-- 92 -->
<g id="node17" class="node">
<title>92</title>
<polygon fill="none" stroke="black" points="302.62,-180 171.81,-180 171.81,-144 302.62,-144 302.62,-180"/>
<text text-anchor="middle" x="237.21" y="-157.8" font-family="Times,serif" font-size="14.00">array[minId] = temp</text>
</g>
<!-- 91&#45;&gt;92 -->
<g id="edge17" class="edge">
<title>91&#45;&gt;92</title>
<path fill="none" stroke="black" d="M235.71,-215.7C235.93,-207.98 236.19,-198.71 236.44,-190.11"/>
<polygon fill="black" stroke="black" points="239.94,-190.2 236.72,-180.1 232.94,-190 239.94,-190.2"/>
</g>
<!-- 80 -->
<g id="node18" class="node">
<title>80</title>
<polygon fill="none" stroke="orange" points="310.21,-108 256.21,-108 256.21,-72 310.21,-72 310.21,-108"/>
<text text-anchor="middle" x="283.21" y="-85.8" font-family="Times,serif" font-size="14.00">i++</text>
</g>
<!-- 92&#45;&gt;80 -->
<g id="edge18" class="edge">
<title>92&#45;&gt;80</title>
<path fill="none" stroke="black" d="M248.58,-143.7C253.93,-135.56 260.42,-125.69 266.32,-116.7"/>
<polygon fill="black" stroke="black" points="269.41,-118.38 271.97,-108.1 263.56,-114.54 269.41,-118.38"/>
</g>
<!-- 80&#45;&gt;79 -->
<g id="edge19" class="edge">
<title>80&#45;&gt;79</title>
<path fill="none" stroke="black" d="M293.81,-108.11C299.67,-118.23 306.67,-131.48 311.21,-144 325.01,-182.02 330.21,-192.55 330.21,-233 330.21,-523 330.21,-523 330.21,-523 330.21,-575.78 282.25,-621.02 249.95,-645.5"/>
<polygon fill="black" stroke="black" points="247.7,-642.81 241.72,-651.56 251.85,-648.45 247.7,-642.81"/>
</g>
</g>
</svg>
