<svg width="227px" height="404px"
 viewBox="0.00 0.00 226.72 404.00" xmlns="http://www.w3.org/2000/svg" xmlns:xlink="http://www.w3.org/1999/xlink">
<g id="graph0" class="graph" transform="scale(1.0 1.0) rotate(0) translate(4 400)">
<title>graph</title>
<polygon fill="white" stroke="transparent" points="-4,4 -4,-400 222.72,-400 222.72,4 -4,4"/>
<!-- 93 -->
<g id="node1" class="node">
<title>93</title>
<ellipse fill="none" stroke="black" cx="90.15" cy="-378" rx="90.31" ry="18"/>
<text text-anchor="middle" x="90.15" y="-373.8" font-family="Times,serif" font-size="14.00">Method: someWhile</text>
</g>
<!-- 95 -->
<g id="node2" class="node">
<title>95</title>
<polygon fill="none" stroke="black" points="127.22,-324 53.09,-324 53.09,-288 127.22,-288 127.22,-324"/>
<text text-anchor="middle" x="90.15" y="-301.8" font-family="Times,serif" font-size="14.00">int i = 100</text>
</g>
<!-- 93&#45;&gt;95 -->
<g id="edge1" class="edge">
<title>93&#45;&gt;95</title>
<path fill="none" stroke="black" d="M90.15,-359.7C90.15,-351.98 90.15,-342.71 90.15,-334.11"/>
<polygon fill="black" stroke="black" points="93.65,-334.1 90.15,-324.1 86.65,-334.1 93.65,-334.1"/>
</g>
<!-- 96 -->
<g id="node3" class="node">
<title>96</title>
<polygon fill="none" stroke="black" points="121.55,-252 58.76,-252 58.76,-216 121.55,-216 121.55,-252"/>
<text text-anchor="middle" x="90.15" y="-229.8" font-family="Times,serif" font-size="14.00">int c = 0</text>
</g>
<!-- 95&#45;&gt;96 -->
<g id="edge2" class="edge">
<title>95&#45;&gt;96</title>
<path fill="none" stroke="black" d="M90.15,-287.7C90.15,-279.98 90.15,-270.71 90.15,-262.11"/>
<polygon fill="black" stroke="black" points="93.65,-262.1 90.15,-252.1 86.65,-262.1 93.65,-262.1"/>
</g>
<!-- 97 -->
<g id="node4" class="node">
<title>97</title>
<polygon fill="none" stroke="orange" points="90.15,-180 49.63,-162 90.15,-144 130.68,-162 90.15,-180"/>
<text text-anchor="middle" x="90.15" y="-157.8" font-family="Times,serif" font-size="14.00">i &gt; 0</text>
</g>
<!-- 96&#45;&gt;97 -->
<g id="edge3" class="edge">
<title>96&#45;&gt;97</title>
<path fill="none" stroke="black" d="M90.15,-215.7C90.15,-207.98 90.15,-198.71 90.15,-190.11"/>
<polygon fill="black" stroke="black" points="93.65,-190.1 90.15,-180.1 86.65,-190.1 93.65,-190.1"/>
</g>
<!-- 98 -->
<g id="node5" class="node">
<title>98</title>
<polygon fill="none" stroke="black" points="62.26,-108 0.05,-108 0.05,-72 62.26,-72 62.26,-108"/>
<text text-anchor="middle" x="31.15" y="-85.8" font-family="Times,serif" font-size="14.00">c = c + i</text>
</g>
<!-- 97&#45;&gt;98 -->
<g id="edge4" class="edge">
<title>97&#45;&gt;98</title>
<path fill="none" stroke="black" d="M79.61,-148.49C71.98,-139.44 61.42,-126.91 52.1,-115.85"/>
<polygon fill="black" stroke="black" points="54.72,-113.53 45.6,-108.14 49.37,-118.04 54.72,-113.53"/>
</g>
<!-- 100 -->
<g id="node7" class="node">
<title>100</title>
<polygon fill="none" stroke="black" points="177.8,-108 118.51,-108 118.51,-72 177.8,-72 177.8,-108"/>
<text text-anchor="middle" x="148.15" y="-85.8" font-family="Times,serif" font-size="14.00">return c</text>
</g>
<!-- 97&#45;&gt;100 -->
<g id="edge5" class="edge">
<title>97&#45;&gt;100</title>
<path fill="none" stroke="black" d="M100.52,-148.49C108.02,-139.44 118.4,-126.91 127.56,-115.85"/>
<polygon fill="black" stroke="black" points="130.27,-118.07 133.95,-108.14 124.88,-113.61 130.27,-118.07"/>
</g>
<!-- 99 -->
<g id="node6" class="node">
<title>99</title>
<polygon fill="none" stroke="black" points="59.15,-36 5.15,-36 5.15,0 59.15,0 59.15,-36"/>
<text text-anchor="middle" x="32.15" y="-13.8" font-family="Times,serif" font-size="14.00">i&#45;&#45;</text>
</g>
<!-- 98&#45;&gt;99 -->
<g id="edge6" class="edge">
<title>98&#45;&gt;99</title>
<path fill="none" stroke="black" d="M31.4,-71.7C31.51,-63.98 31.64,-54.71 31.77,-46.11"/>
<polygon fill="black" stroke="black" points="35.27,-46.15 31.91,-36.1 28.27,-46.05 35.27,-46.15"/>
</g>
<!-- 99&#45;&gt;97 -->
<g id="edge7" class="edge">
<title>99&#45;&gt;97</title>
<path fill="none" stroke="black" d="M47.94,-36.44C56.02,-46.24 65.35,-59.08 71.15,-72 80.1,-91.9 84.92,-116.24 87.47,-134.43"/>
<polygon fill="black" stroke="black" points="84.03,-135.12 88.75,-144.6 90.97,-134.25 84.03,-135.12"/>
</g>
<!-- 94 -->
<g id="node8" class="node">
<title>94</title>
<ellipse fill="none" stroke="black" cx="148.15" cy="-18" rx="70.63" ry="18"/>
<text text-anchor="middle" x="148.15" y="-13.8" font-family="Times,serif" font-size="14.00">end of program</text>
</g>
<!-- 100&#45;&gt;94 -->
<g id="edge8" class="edge">
<title>100&#45;&gt;94</title>
<path fill="none" stroke="black" d="M148.15,-71.7C148.15,-63.98 148.15,-54.71 148.15,-46.11"/>
<polygon fill="black" stroke="black" points="151.65,-46.1 148.15,-36.1 144.65,-46.1 151.65,-46.1"/>
</g>
</g>
</svg>
